<svg xmlns="http://www.w3.org/2000/svg" id="Capa_1" data-name="Capa 1" viewBox="0 0 600 226.32"><defs><style>.cls-1{fill:#2d2e82;}.cls-2{fill:#fff;stroke:#2d2e82;stroke-miterlimit:10;stroke-width:2px;}</style></defs><path class="cls-1" d="M33.82,41.26h37.8L60.1,96C70.2,74,77.88,56.22,84.75,41.26h43.67L93.24,97.66l5.67,79.84H60.7l.2-51.14L50.39,141.52l-7.68,36H4.91Z"></path><path class="cls-1" d="M146.41,150.62l-7.68,26.88H98.5L147,41.26h58.41L196.34,177.5H156.92l2.83-26.88Zm16-29.11c2.83-16.58,6.06-40.83,7.48-51.14h-1.22c-2.83,11.52-8.49,34-12.53,51.14Z"></path><path class="cls-1" d="M246.87,133.23c-3,14-2.22,20.42,2.43,20.42,4.85,0,6.26-4.25,7.27-10.11,1.62-8.89-1.41-14.55-13.14-24.66-16-13.74-24.25-23.65-19.6-47.09,3.63-18,15.36-33.15,43-33.15,29.92,0,43.86,15.16,38,44.67H270.32c2.63-12.74,2-18.19-2.63-18.19-3.23,0-5.46,2-6.47,8.48-1,6.27,1.21,10.31,12.74,20.42,19.6,17.18,26.27,29.11,21.22,52.35-4.65,21.43-18.39,33.76-47.7,33.76-32.75,0-43.87-18.2-37.6-46.9Z"></path><path class="cls-1" d="M328.53,41.26h41c29.92,0,43.87,17.79,37.4,49.52-6.47,31.54-23.85,40.63-51.14,40.63h-7.88l-9.71,46.09h-38.6Zm25.27,62.06h3.44c7.47,0,9.49-4.65,12.12-18.19,2.83-14.15,1.42-17.39-5.05-17.39h-2.83Z"></path><path class="cls-1" d="M428.39,177.5H388.17L436.68,41.26h58.41L486,177.5H428.39Z"></path><path class="cls-1" d="M503,177.5l8.49-40.83a28.09,28.09,0,0,0,.8-9.3l-8.69-86.11H600L553.31,130a24.32,24.32,0,0,0-2.23,6.47l-8.89,41Z"></path><path class="cls-2" d="M485.27,222.92c-.45-.8-1-1.56-1.34-2.4q-17.21-39.66-34.4-79.34c-.44-1-.92-2-1.51-3.32-16.74,9.68-33.26,19.45-50.07,29.2.85-2,53.95-71.94,56.2-74.13a5.56,5.56,0,0,1,.88,2.6q8.58,35.64,17.15,71.27,6.4,26.67,12.8,53.33a21.22,21.22,0,0,1,.33,2.76Z"></path><path class="cls-2" d="M503.47,3.42c1.91,3.79,3.85,7.55,5.72,11.35q14.73,29.83,29.44,59.68c.33.66.67,1.32,1.14,2.23,14.1-9.09,28-18.3,42-27.33l.36.34-45.61,66.43a3.1,3.1,0,0,1-1-2q-7.44-25.35-14.87-50.72Q512.4,35,504.11,6.64a31.87,31.87,0,0,1-.6-3.24Z"></path><path class="cls-1" d="M16.63,187.73l-.47,2.18h-10L4.87,196.1h10.2l-.47,2.18H4.41l-1.83,8.8H0l4-19.35Z"></path><path class="cls-1" d="M48.55,207.08h-2.5l-.91-5.56H37.26l-3.08,5.56H31.31l11-19.35h3.06Zm-3.74-7.56L44,194.67c-.29-1.84-.47-3.45-.55-4.84a33.52,33.52,0,0,1-1.92,4l-3.18,5.72ZM42.2,186l2.54-3.7h3.12l-3.7,3.7Z"></path><path class="cls-1" d="M86.23,193.49l-2.43.23c-.49-2.8-2-4.19-4.64-4.19a6.43,6.43,0,0,0-3.89,1.21,8.69,8.69,0,0,0-2.7,3.42,11.47,11.47,0,0,0-1,5,6.67,6.67,0,0,0,1.4,4.49,4.81,4.81,0,0,0,3.87,1.63,5.76,5.76,0,0,0,2.35-.49,6.11,6.11,0,0,0,2.1-1.62,7.89,7.89,0,0,0,1.52-2.9l2.57.36a10.88,10.88,0,0,1-3.47,5,8.39,8.39,0,0,1-5.28,1.77,8.59,8.59,0,0,1-3.85-.83,6.36,6.36,0,0,1-2.74-2.7,9.6,9.6,0,0,1-1.06-4.79,12.4,12.4,0,0,1,2.86-8.33A9.08,9.08,0,0,1,79,187.41,7.39,7.39,0,0,1,84,189,6.64,6.64,0,0,1,86.23,193.49Z"></path><path class="cls-1" d="M110.72,187.73l-4,19.35h-2.59l4.07-19.35Z"></path><path class="cls-1" d="M140.81,204.9l-.47,2.18H127.72l4-19.35h2.59l-3.57,17.17Z"></path><path class="cls-1" d="M203.21,187.73,194,199.86l-1.5,7.22h-2.59l1.56-7.48-5.95-11.87h2.79l2.84,5.64c.68,1.33,1.28,2.66,1.82,4a27.41,27.41,0,0,1,2.67-3.93l4.54-5.68Z"></path><path class="cls-1" d="M259.14,193.23l-2.48.18a3.35,3.35,0,0,0-1.33-2.92,5.62,5.62,0,0,0-3.35-.94,5.74,5.74,0,0,0-3,.72,2.31,2.31,0,0,0-1.22,2.15,2.18,2.18,0,0,0,.46,1.37,3.91,3.91,0,0,0,1.29,1c.55.29,1.62.79,3.22,1.49a25.76,25.76,0,0,1,2.82,1.42,4.63,4.63,0,0,1,1.62,1.64,4.49,4.49,0,0,1,.62,2.36,4.88,4.88,0,0,1-.85,2.87,6.2,6.2,0,0,1-2.6,2,9.6,9.6,0,0,1-4,.79c-5,0-7.45-2.19-7.47-6.58l2.53-.24,0,.67a4.83,4.83,0,0,0,.2,1.4,3.61,3.61,0,0,0,.75,1.28,3.71,3.71,0,0,0,1.58,1,7.68,7.68,0,0,0,2.51.35,6.37,6.37,0,0,0,3.33-.85,2.74,2.74,0,0,0,1.44-2.48,2.37,2.37,0,0,0-.47-1.41,3.67,3.67,0,0,0-1.23-1.07q-.77-.44-2.55-1.2a27.1,27.1,0,0,1-3.12-1.52A5.56,5.56,0,0,1,246,195a4.26,4.26,0,0,1-.73-2.43,4.36,4.36,0,0,1,1.92-3.83,8.38,8.38,0,0,1,4.85-1.32,9.58,9.58,0,0,1,3.92.7,5.42,5.42,0,0,1,3.14,5.12Z"></path><path class="cls-1" d="M294.85,187.73l-.47,2.18H283L281.77,196h11.05l-.46,2.18H281.3l-1.42,6.76h12.17l-.44,2.18H276.82l4.05-19.35Z"></path><path class="cls-1" d="M330.93,193.39l-2.53.28a4.64,4.64,0,0,0-5-4.12,6.81,6.81,0,0,0-5.81,2.88,11.48,11.48,0,0,0-2.1,6.95c0,3.94,1.8,5.9,5.39,5.9a11,11,0,0,0,5.43-1.67l.88-4.17H321.3l.47-2.19h8.47l-1.66,7.89a14.19,14.19,0,0,1-7.66,2.27,7.37,7.37,0,0,1-8.07-8.07,13.69,13.69,0,0,1,1.43-6.18,9.86,9.86,0,0,1,9.19-5.75,8,8,0,0,1,5,1.44A7.14,7.14,0,0,1,330.93,193.39Z"></path><path class="cls-1" d="M368.23,187.73l-2.37,11.34q-1.74,8.35-8.43,8.36a7.5,7.5,0,0,1-5.25-1.62,5.29,5.29,0,0,1-1.75-4,21.14,21.14,0,0,1,.55-3.5l2.2-10.55h2.58l-2.48,11.89a12,12,0,0,0-.3,2.21,3,3,0,0,0,1.22,2.49,4.89,4.89,0,0,0,3.11,1,5.14,5.14,0,0,0,5-3.14,20.54,20.54,0,0,0,1.1-3.75l2.24-10.66Z"></path><path class="cls-1" d="M397.12,198.39a11.1,11.1,0,0,1,3.54,5.05l1.49,3.64h-2.88l-1.4-3.6a15.49,15.49,0,0,0-1.67-3.31,3.78,3.78,0,0,0-1.54-1.43,6.45,6.45,0,0,0-2.09-.25h-3l-1.79,8.59h-2.59l4.05-19.35h8.13a20,20,0,0,1,2.51.13,5.09,5.09,0,0,1,1.92.65,3.39,3.39,0,0,1,1.37,1.5,5.4,5.4,0,0,1,.49,2.43Q403.65,197.5,397.12,198.39Zm-5.75-8.54L390,196.39h3.58c1.42,0,2.48,0,3.19-.06a6,6,0,0,0,2.15-.52,3.71,3.71,0,0,0,1.66-1.41,3.61,3.61,0,0,0,.6-2,2.77,2.77,0,0,0-.42-1.61,2,2,0,0,0-1.14-.77,8.89,8.89,0,0,0-1.94-.17Z"></path><path class="cls-1" d="M440.89,196.08a11.8,11.8,0,0,1-1.37,5.74,11.23,11.23,0,0,1-3.7,4,9.32,9.32,0,0,1-5.25,1.55,8.92,8.92,0,0,1-3.3-.57,6.62,6.62,0,0,1-2.5-1.7,8.43,8.43,0,0,1-1.68-2.76,9.34,9.34,0,0,1-.63-3.41,12.13,12.13,0,0,1,2.88-8.27,9.35,9.35,0,0,1,7.37-3.29,7.74,7.74,0,0,1,5.93,2.38A8.8,8.8,0,0,1,440.89,196.08Zm-2.59-.2a6.69,6.69,0,0,0-1.55-4.56,5.15,5.15,0,0,0-4.06-1.77,6.59,6.59,0,0,0-3.92,1.19,8.64,8.64,0,0,0-2.73,3.39,11.38,11.38,0,0,0-1.05,5,5.73,5.73,0,0,0,5.77,6.17,6.37,6.37,0,0,0,3.42-1,8.89,8.89,0,0,0,2.87-3.18A10.29,10.29,0,0,0,438.3,195.88Z"></path></svg>